inDegrees=no
num_controls=7
num_derivatives=13
num_iterations=131
num_multipliers=7
num_parameters=0
num_slacks=7
num_states=26
objective=0.441598
objective_accelerations=0.032896
objective_balance=0.006650
objective_effort=0.024231
objective_height=0.376306
objective_ligament=0.001514
solver_duration=1738.070928
status=Solve_Succeeded
success=true
DataType=double
version=3
OpenSimVersion=4.5
endheader
time	/jointset/ground_pelvis/pelvis_tilt/value	/jointset/ground_pelvis/pelvis_tx/value	/jointset/ground_pelvis/pelvis_ty/value	/jointset/hip_l/hip_flexion_l/value	/jointset/hip_l/hip_adduction_l/value	/jointset/hip_l/hip_rotation_l/value	/jointset/back/lumbar_extension/value	/jointset/patellofemoral_l/patellar_flexion_l/value	/jointset/knee_l/knee_flexion_l/value	/jointset/knee_l/knee_adduction_l/value	/jointset/knee_l/knee_rotation_l/value	/jointset/ankle_l/ankle_angle_l/value	/jointset/subtalar_l/subtalar_angle_l/value	/jointset/ground_pelvis/pelvis_tilt/speed	/jointset/ground_pelvis/pelvis_tx/speed	/jointset/ground_pelvis/pelvis_ty/speed	/jointset/hip_l/hip_flexion_l/speed	/jointset/hip_l/hip_adduction_l/speed	/jointset/hip_l/hip_rotation_l/speed	/jointset/back/lumbar_extension/speed	/jointset/patellofemoral_l/patellar_flexion_l/speed	/jointset/knee_l/knee_flexion_l/speed	/jointset/knee_l/knee_adduction_l/speed	/jointset/knee_l/knee_rotation_l/speed	/jointset/ankle_l/ankle_angle_l/speed	/jointset/subtalar_l/subtalar_angle_l/speed	/forceset/tau_hip_flexion_l	/forceset/tau_hip_adduction_l	/forceset/tau_hip_rotation_l	/forceset/tau_knee_flexion_l	/forceset/tau_ankle_angle_l	/forceset/tau_subtalar_angle_l	/forceset/tau_lumbar_extension	lambda_cid13_p0	lambda_cid13_p1	lambda_cid13_p2	lambda_cid13_p3	lambda_cid13_p4	lambda_cid13_p5	lambda_cid14_p0	/jointset/ground_pelvis/pelvis_tilt/accel	/jointset/ground_pelvis/pelvis_tx/accel	/jointset/ground_pelvis/pelvis_ty/accel	/jointset/hip_l/hip_flexion_l/accel	/jointset/hip_l/hip_adduction_l/accel	/jointset/hip_l/hip_rotation_l/accel	/jointset/back/lumbar_extension/accel	/jointset/patellofemoral_l/patellar_flexion_l/accel	/jointset/knee_l/knee_flexion_l/accel	/jointset/knee_l/knee_adduction_l/accel	/jointset/knee_l/knee_rotation_l/accel	/jointset/ankle_l/ankle_angle_l/accel	/jointset/subtalar_l/subtalar_angle_l/accel	gamma_cid13_p0	gamma_cid13_p1	gamma_cid13_p2	gamma_cid13_p3	gamma_cid13_p4	gamma_cid13_p5	gamma_cid14_p0
0	-0.1594558874690402	0.05831032733011425	0.8979750308772519	0.3774924667018715	-0.2594819398591793	-0.2670932067863895	-0.01265067647494873	0.03223648243721501	0.03223648243721463	-0.1745328071793111	0.1689193521357302	-0.04231377076293093	-0.009674638297419463	0	0	0	0	0	0	0	0	0	0	0	0	0	0.1409949054114325	-0.09170856366831648	-0.05417698296997219	-0.3320181412514361	0.3779148764120642	-0.04411534526128925	-0.07834303381643673	79.24460449848019	-0.08492657866599332	5.743884127927923	-36.95112898572631	-601.9885841580691	-78.58451636762921	-38.89949832299587	-2.299922339441746	-0.9035152173356565	-0.6951356487080785	7.827079828965434	-1.011487837393288	2.53280505036217	-4.740245230246247	7.406794306477772	7.406794306477003	0.04280089630621327	0.07935800549310476	2.022074184004484	-0.5635067255372402	-3.77449478613801e-08	5.625668608501093e-08	5.825059526449383e-08	2.388419823039334e-08	-2.513699730752487e-08	-4.12292839231943e-08	-7.779659698767435e-09
0.01	-0.1595653429702267	0.05826427980367975	0.8979410424213781	0.3778741672287149	-0.2595322295121641	-0.2669674042655332	-0.01288808845344251	0.03259844055109289	0.03259844055109185	-0.1745321588291271	0.1689212775049037	-0.04221734137313814	-0.009703603830510958	-0.02165616582272199	-0.009321567957957055	-0.006779187812557512	0.07605755865529858	-0.01001764434407718	0.02500899250381274	-0.04720567358689082	0.0720948871527298	0.07209488715271101	0.0001125167007694782	0.0004236857007943467	0.01901403367288697	-0.005816258618460028	0.1291651376734724	-0.101709410730448	-0.05095476086125104	-0.3115363184623693	0.3431681855344681	-0.0223305691562831	-0.07010049547595817	68.85546649278622	-7.464061486018452	6.619988582385353	-29.24538661734453	-602.2249057019282	-92.07592414863959	-38.90983973023906	-2.063227460059642	-0.9632822089130636	-0.6665398705880743	7.452707204363344	-0.9908788068261994	2.46221355163372	-4.669220106121375	7.066327132156348	7.066327132154182	-0.007077335391148207	0.0296608500622547	1.800287645246305	-0.5941732190706647	-4.080029797555656e-08	6.005397249106375e-08	6.762672404475244e-08	2.412978612509059e-08	-7.28714998367194e-08	-1.642698903974336e-08	-1.06928453403771e-08
0.02	-0.1598843128809158	0.05812165567288816	0.897839816182767	0.3790079660062243	-0.2596814908233718	-0.2665960583793917	-0.01358925550444677	0.03367244577899679	0.03367244577899659	-0.1745308961904065	0.1689285971306226	-0.04193892770935342	-0.009791429507601104	-0.04190288190033156	-0.01931532087141854	-0.01344755654744689	0.150419650132648	-0.01979433164460469	0.04910867305734099	-0.09275101450221492	0.1424094228048901	0.1424094228048635	0.000122857707401848	0.001078851309175032	0.036396854798393	-0.01177202879973079	0.1173353699355472	-0.1117102577925784	-0.04773253875252435	-0.2910544956732845	0.3084214946568782	-0.000545793051274518	-0.06185795713545651	58.52520038779268	-14.8554436949534	7.500263781572038	-21.69444272351767	-601.593030316983	-105.4838775967125	-38.94068019225241	-2.018032390419239	-1.037952208436567	-0.6729718331744492	7.48798639337563	-0.9632964286833071	2.35094266030527	-4.408178695932895	7.05072400636387	7.050724006365299	0.02236575747888649	0.125653987010369	1.695831674528283	-0.5914090380993432	-4.385564808973302e-08	6.385125889711655e-08	7.700285282501105e-08	2.437537401978783e-08	-1.206060023659139e-07	8.375305843707577e-09	-1.360603098198678e-08
0.03	-0.1604003757298826	0.05787781791662063	0.8976724381478198	0.3808762079453133	-0.2599270938635675	-0.2659875856439703	-0.0147372474158164	0.03544067183663727	0.03544067183663652	-0.1745297759761251	0.168943066660703	-0.04149214845977598	-0.009938696698653068	-0.06122272908831499	-0.02935457986493208	-0.02000844091218149	0.222840714934751	-0.02926966703981304	0.07250591786469322	-0.1365572742094982	0.2109161248495126	0.2109161248494741	9.669305103919128e-05	0.001787638312235942	0.05294878663848694	-0.0176303376010308	0.1143872546244665	-0.1055654387682348	-0.04750026492906172	-0.2896198751397601	0.3086904452440348	-0.005330716065597501	-0.05916342055233898	58.42095734088226	-12.89965939607816	7.349010450712329	-22.24596731164796	-602.0672843735634	-101.0223447445408	-38.99125955087867	-1.875921142251551	-0.9722602912205265	-0.6447296227180128	7.06095657279599	-0.9311719254419385	2.322111304863894	-4.32333557377223	6.702696455458651	6.702696455455972	-0.01576432821163583	0.03936875974351546	1.633339792365598	-0.5753993682381776	-6.436655721539482e-08	7.351407377131481e-08	1.074223748582001e-07	4.133747046059091e-08	-1.975803559458233e-07	2.627057349938395e-09	-1.933035522620747e-08
0.04	-0.1611070291025829	0.05753651806113557	0.8974400346923063	0.3834570185422557	-0.2602657542238159	-0.2651475412776922	-0.01631459911738846	0.03788437554511197	0.03788437554511173	-0.1745290487586401	0.1689637996013736	-0.0408801567210745	-0.0101430184911366	-0.08002098664684061	-0.03880774071492381	-0.02645264066072999	0.2929333817035893	-0.03840579565511461	0.09542299922859267	-0.178622972542627	0.2775049529720228	0.277504952971965	4.425835396495377e-05	0.00233153342687944	0.069439352623206	-0.02318294908604462	0.1114391393133775	-0.09942061974389073	-0.04726799110559442	-0.2881852546062426	0.3089593958311891	-0.01011563907992065	-0.05646888396922609	58.37236259798296	-10.95297596952156	7.198476097335106	-22.94250980440696	-601.7360266428846	-96.47682318484753	-39.06043564032623	-1.913714464527659	-0.920732579732227	-0.6496349099372269	7.022306786722721	-0.8954550727019316	2.254909971614713	-4.060066421101978	6.667149221941401	6.66714922194136	0.01711174933660893	0.09267560932688618	1.68355850345329	-0.530269574842087	-8.523737477428313e-08	8.329782737681504e-08	1.382757812883568e-07	5.864423718069515e-08	-2.751575930525516e-07	-3.751099254701312e-09	-2.511264109110056e-08
0.05	-0.1619987962239	0.05710285683052731	0.8971436111195543	0.3867281403989232	-0.2606939159793221	-0.2640812554403885	-0.01830360908697364	0.04098494546137815	0.04098494546138045	-0.1745287464835744	0.168989805337456	-0.04010430705475081	-0.0104013656152618	-0.09819974392799007	-0.04790148843468895	-0.03282483584850274	0.3609681548348737	-0.04715095627227524	0.1177023572850368	-0.2188782816063935	0.3423198040035695	0.3423198040035396	3.62449534407926e-05	0.002897676070425115	0.08563812614411133	-0.02843728469196142	0.1045791281589949	-0.09633967328306998	-0.04591193643110731	-0.279784839831507	0.296709288280914	-0.00761969828711711	-0.05123120816547902	54.5453940150242	-11.42795218011433	7.343948821803274	-20.53395919323009	-601.4562880218815	-96.31845086651607	-39.14683195320423	-1.750057089876287	-0.9002314536267194	-0.6299817754305501	6.645626896272655	-0.8527229070334665	2.194656803756559	-3.963152183799604	6.345274171320046	6.345274171324327	-0.006724281021859282	0.04277357905908094	1.574162278510544	-0.5156648656486597	-9.067657846229551e-08	8.463707516131161e-08	1.425707589521085e-07	6.520116832504355e-08	-3.170641183711642e-07	4.895707401380099e-09	-2.624461441368211e-08
0.06	-0.1630683710640233	0.05657895100561573	0.8967836716044779	0.3906699228508922	-0.261207264611162	-0.2627961344063011	-0.02068614995415355	0.04472498811347488	0.04472498811347526	-0.1745279176217683	0.1690223104974073	-0.03916924455279782	-0.0107107859578826	-0.115582530407844	-0.05685665957558329	-0.03915582912561759	0.4270655007638129	-0.05544317092184908	0.1391900385853724	-0.257329152061583	0.4053995001374651	0.4053995001374659	0.0001495757019190336	0.003631418201598227	0.1012819197490712	-0.03339759278516577	0.09771911700462226	-0.0932587268222495	-0.0445558817566455	-0.2713844250567643	0.2844591807306396	-0.005123757494313303	-0.04599353236172365	50.76841025047987	-11.91089090936363	7.489790809105815	-18.26111667127822	-600.4462540936336	-96.08601897369142	-39.2491884183773	-1.75452030426854	-0.8930172639580802	-0.6413945278056451	6.634821346253702	-0.8048658791845782	2.096574620392986	-3.699178699386565	6.320118242411178	6.320118242411679	0.04138057913707432	0.1261955068523759	1.572562520264174	-0.4714640722996081	-9.546602998732363e-08	8.562076480597647e-08	1.457474869835905e-07	7.130547481357065e-08	-3.574687189829088e-07	1.417514408949187e-08	-2.718078510290318e-08
0.07000000000000001	-0.1643081247552619	0.05596646326246957	0.8963605467935764	0.3952630595046595	-0.2618013403096733	-0.2612996183225028	-0.0234442095491997	0.04908716776941959	0.04908716776942208	-0.174525568431755	0.1690625687786385	-0.03808018902244183	-0.01106835011478024	-0.1322432701088043	-0.06558822011838969	-0.04546557612372394	0.4911945516918848	-0.06330474189713078	0.1600328725770799	-0.2940100126825456	0.4667114807657997	0.4667114807657863	0.0003084476768636602	0.004390074978593341	0.1164565969932643	-0.03807144476595321	0.09194180493938177	-0.08972775598596736	-0.04359289378123345	-0.2659503994624952	0.2768146015491003	-0.004409213874349213	-0.04141205244154086	48.38214807823929	-11.86857762952849	7.557492861539872	-17.06365203828751	-599.908509503698	-94.94782148363541	-39.36596968336279	-1.60311383714089	-0.8553107740980536	-0.6253032296695972	6.24684424293034	-0.7667309275632195	2.066070065702711	-3.611626603673639	5.988000877665158	5.988000877662614	0.001393678782231221	0.04615499812298063	1.479025069478445	-0.4588055109694035	-1.058438319713149e-07	8.835411537848682e-08	1.664303360704177e-07	7.942107717415657e-08	-3.949626305539833e-07	1.025099735632829e-08	-3.082988222284552e-08
0.08	-0.1657107384503369	0.05526824284896407	0.8958744168239225	0.4004864661230759	-0.2624720173621102	-0.2595970874433587	-0.02656089512250013	0.05405271981257403	0.05405271981257396	-0.1745219798875664	0.169109504474636	-0.0368415657710476	-0.01147134474148596	-0.1481545311750069	-0.07400319364744926	-0.0517568608760996	0.5531194936938125	-0.07076344170694247	0.1803929976545108	-0.3290543477124079	0.5260739775789557	0.5260739775789219	0.0003974465361711576	0.00496690115558498	0.1311954639567195	-0.04248368674678438	0.08616449287413709	-0.08619678514968478	-0.0426299058058442	-0.2605163738682257	0.2691700223675602	-0.003694670254384611	-0.0368305725213601	46.04131884659208	-11.83247960846326	7.624199811975952	-15.99137451481827	-598.7121819339486	-93.74075785855179	-39.49549965535611	-1.604624577316998	-0.8296998612087261	-0.6377020786595059	6.193999561024855	-0.7242916460905828	2.000032837537673	-3.371873581166497	5.93022147937544	5.930221479374712	0.02740595600963167	0.0898293868516834	1.48540046411658	-0.4191420723083671	-1.16582172694594e-07	9.120034730118075e-08	1.88242612322106e-07	8.766644055874628e-08	-4.322687557353372e-07	5.475006531469519e-09	-3.465400685444729e-08
